<?xml version="1.0" encoding="utf-8"?>
<!-- Generator: Adobe Illustrator 19.0.0, SVG Export Plug-In . SVG Version: 6.00 Build 0)  -->
<svg version="1.1" id="Capa_1" xmlns="http://www.w3.org/2000/svg" xmlns:xlink="http://www.w3.org/1999/xlink" x="0px" y="0px"
	 viewBox="0 0 270 270" style="enable-background:new 0 0 270 270;" xml:space="preserve">
<style type="text/css">
	.st0{fill:#FF570A;}
	.st1{fill:#FFFFFF;}
</style>
<path id="XMLID_169_" class="st0" d="M135,2.9C62.1,2.9,2.9,62.1,2.9,135S62.1,267.1,135,267.1S267.1,207.9,267.1,135
	S207.9,2.9,135,2.9z"/>
<g id="XMLID_1793_">
	<path id="XMLID_2702_" class="st1" d="M199.3,146.3h-5.6c0,21.2,0,42.3,0.1,63.5c0,6.5-1.2,8.7-6.8,8.6c-26.5-0.4-52.9-0.4-79.4,0
		c-5.9,0.1-6.7-2.7-6.7-8.9c0.1-39,0-78,0.1-116.9h-7.9v133.8h106.1V146.3z"/>
	<rect id="XMLID_2701_" x="109.1" y="154.6" class="st1" width="26" height="12.3"/>
	<rect id="XMLID_2700_" x="109.1" y="174.8" class="st1" width="74.4" height="12.3"/>
	<rect id="XMLID_2699_" x="109.1" y="194.4" class="st1" width="74.4" height="12.3"/>
	<path id="XMLID_2697_" class="st1" d="M93.2,60.2v21.7h8.1c0-2.3,0-4.7,0-7c0-6.5,1.2-8.7,6.8-8.6c18.3,0.2,36.6,0.3,54.9,0.2v0
		h14.9v-0.1h9.1v-0.2c0.2,0,0.3,0,0.5,0c5.9-0.1,6.7,2.7,6.7,8.9c0,0.3,0,0.7,0,1h5.2v-16H93.2z"/>
	<path id="XMLID_2695_" class="st1" d="M100.9,205.9c-2.9,0-5.7,0.1-8.6,0.1c-5.9,0.1-6.7-2.7-6.7-8.9c0.1-39,0-78,0.1-116.9h-7.9
		V214h23V205.9z"/>
	<path id="XMLID_1862_" class="st1" d="M77.8,47.7v21.7h8.1c0-2.3,0-4.7,0-7c0-6.5,1.2-8.7,6.8-8.6c18.3,0.2,36.6,0.3,54.9,0.2v0
		h14.9V54h9.1v-0.2c0.2,0,0.3,0,0.5,0c5.9-0.1,6.7,2.7,6.7,8.9c0,0.3,0,0.7,0,1h5.2v-16H77.8z"/>
	<path id="XMLID_1849_" class="st1" d="M109.1,102c0.1-0.1,0.1-0.1,0.2-0.2c0.7-1,1.5-1.1,2.4-0.4c2.5,2,4.9,4.1,7.4,6.1
		c1.3,1.1,2.7,2.2,4,3.3c1.4-1,2.9-2.1,4.3-3.1c7.6-5.5,15.2-11,22.7-16.5c0.2-0.1,0.3-0.3,0.5-0.4c0.4,0,0.8,0,1.2,0
		c0.3,0.3,0.6,0.7,0.9,1c0,0.5,0,0.9,0,1.4c-0.2,0.2-0.4,0.4-0.6,0.7c-1.9,2.2-3.9,4.4-5.8,6.6c-7.3,8.4-14.6,16.8-21.9,25.3
		c-0.2,0.3-0.5,0.5-0.7,0.7c-0.4,0-0.8,0-1.2,0c-0.3-0.4-0.7-0.7-0.9-1.2c-4.1-7.2-8.2-14.5-12.3-21.7c-0.1-0.1-0.2-0.2-0.2-0.2
		C109.1,102.8,109.1,102.4,109.1,102z"/>
	<path id="XMLID_1794_" class="st1" d="M229.6,116.3c-3.1,2.8-6.3,5.6-9.4,8.3c-5.6,5-11.2,10.1-16.8,15.1c-0.2,0.1-0.3,0.3-0.7,0.6
		c0-0.6,0-1,0-1.4c0-3.9-0.1-7.7-0.1-11.6c0-0.9-0.3-1.2-1-1.4c-5.2-1.4-10.5-2.4-15.9-2.8c-6-0.5-12-0.2-17.9,1.4
		c-7,1.9-13.2,5.5-17.9,11.4c-0.1,0.1-0.2,0.3-0.5,0.3c0.3-0.8,0.6-1.6,0.9-2.4c0.3-0.8,0.7-1.6,1.1-2.3c3.3-6.4,8.2-11.3,13.9-15.2
		c7.4-5,15.5-8,24-9.8c4.2-0.9,8.5-1.6,12.9-2.4c-0.1-3.6-0.1-7.3-0.2-11.4c1.4,1.2,2.6,2.2,3.7,3.2c7.7,6.6,15.3,13.1,23,19.7
		c0.3,0.2,0.5,0.4,0.8,0.6C229.6,116.1,229.6,116.2,229.6,116.3z"/>
</g>
</svg>
