<?xml version="1.0" encoding="utf-8"?>
<!-- Generator: Adobe Illustrator 19.0.0, SVG Export Plug-In . SVG Version: 6.00 Build 0)  -->
<svg version="1.1" id="Capa_1" xmlns="http://www.w3.org/2000/svg" xmlns:xlink="http://www.w3.org/1999/xlink" x="0px" y="0px"
	 viewBox="0 0 270 270" style="enable-background:new 0 0 270 270;" xml:space="preserve">
<style type="text/css">
	.st0{fill:#DFDFDF;}
	.st1{fill:#FFFFFF;}
</style>
<path id="XMLID_169_" class="st0" d="M135,2.9C62.1,2.9,2.9,62.1,2.9,135S62.1,267.1,135,267.1S267.1,207.9,267.1,135
	S207.9,2.9,135,2.9z"/>
<g id="XMLID_2721_">
	<path id="XMLID_2731_" class="st1" d="M205.7,202.3c-7.4-0.1-14.1-5.3-16.2-12.6c-2.2-7.7,0.4-15.6,6.6-20.3
		c6-4.5,14.3-4.4,20.1,0.1c2.1,1.6,2.5,2.8,0.4,4.8c-2.8,2.7-5.5,5.6-8.1,8.6c-2.2,2.7-4.1,2.9-6.3,0c-0.6-0.9-1.5-1.6-2.3-2.3
		c-1.6-1.3-2.8-0.2-3.9,1c-1.2,1.2-1.4,2.4-0.3,3.8c0.4,0.5,0.8,1,1.2,1.4c8.1,9.4,8.1,9.4,16.5,0.5c2.3-2.4,4.6-4.8,6.8-7.3
		c1.8-2,2.6-1.6,3,1.1C225,192.3,216.7,202.4,205.7,202.3z"/>
	<g id="XMLID_2728_">
		<ellipse id="XMLID_2730_" class="st1" cx="55.9" cy="98.4" rx="7.4" ry="7.9"/>
		<path id="XMLID_2729_" class="st1" d="M208.9,105.2H76.1c-0.6,0-1-0.5-1-1V92.7c0-0.6,0.5-1,1-1h132.8c0.6,0,1,0.5,1,1v11.5
			C210,104.7,209.5,105.2,208.9,105.2z"/>
	</g>
	<g id="XMLID_2725_">
		<ellipse id="XMLID_2727_" class="st1" cx="55.9" cy="132.4" rx="7.4" ry="7.9"/>
		<path id="XMLID_2726_" class="st1" d="M208.9,139.2H76.1c-0.6,0-1-0.5-1-1v-11.5c0-0.6,0.5-1,1-1h132.8c0.6,0,1,0.5,1,1v11.5
			C210,138.7,209.5,139.2,208.9,139.2z"/>
	</g>
	<g id="XMLID_2722_">
		<ellipse id="XMLID_2724_" class="st1" cx="55.9" cy="172.9" rx="7.4" ry="7.9"/>
		<path id="XMLID_2723_" class="st1" d="M208.9,179.6H76.1c-0.6,0-1-0.5-1-1v-11.5c0-0.6,0.5-1,1-1h132.8c0.6,0,1,0.5,1,1v11.5
			C210,179.2,209.5,179.6,208.9,179.6z"/>
	</g>
</g>
</svg>
