<?xml version="1.0" encoding="utf-8"?>
<!-- Generator: Adobe Illustrator 19.0.0, SVG Export Plug-In . SVG Version: 6.00 Build 0)  -->
<svg version="1.1" id="Capa_1" xmlns="http://www.w3.org/2000/svg" xmlns:xlink="http://www.w3.org/1999/xlink" x="0px" y="0px"
	 viewBox="0 0 270 270" style="enable-background:new 0 0 270 270;" xml:space="preserve">
<style type="text/css">
	.st0{fill:#FF570A;}
</style>
<path id="XMLID_169_" class="st0" d="M135,2.9C62.1,2.9,2.9,62.1,2.9,135S62.1,267.1,135,267.1S267.1,207.9,267.1,135
	S207.9,2.9,135,2.9z M153.6,215.4v25.2h-35.3v-25.5c-22.6-4.8-41.7-19.3-43.2-44.9h25.9c1.3,13.9,10.8,24.7,35,24.7
	c25.9,0,31.7-12.9,31.7-21c0-11-5.8-21.3-35.3-28.3c-32.8-7.9-55.2-21.4-55.2-48.5c0-22.7,18.4-37.5,41.1-42.4V29.3h35.3v25.8
	c24.6,5.9,36.8,24.6,37.6,44.8h-25.9c-0.7-14.7-8.5-24.7-29.3-24.7c-19.8,0-31.7,9-31.7,21.7c0,11.1,8.6,18.4,35.3,25.2
	s55.2,18.4,55.2,51.6C194.7,197.9,176.6,211.1,153.6,215.4z"/>
</svg>
