<?xml version="1.0" encoding="utf-8"?>
<!-- Generator: Adobe Illustrator 16.0.0, SVG Export Plug-In . SVG Version: 6.00 Build 0)  -->
<!DOCTYPE svg PUBLIC "-//W3C//DTD SVG 1.1//EN" "http://www.w3.org/Graphics/SVG/1.1/DTD/svg11.dtd">
<svg version="1.1" xmlns="http://www.w3.org/2000/svg" xmlns:xlink="http://www.w3.org/1999/xlink" x="0px" y="0px" width="48px"
	 height="48px" viewBox="0 0 48 48" enable-background="new 0 0 48 48" xml:space="preserve">
<g id="Capa_9" display="none">
</g>
<g id="Capa_1" display="none">
	<path display="inline" fill="#172434" d="M25.066,46.779c-2.554,0-4.522-0.756-5.845-2.254c-1.006-1.131-1.414-2.439-1.568-3.477
		H3.595c-0.613,0.055-1.619-0.191-2.307-1.883c-0.611-1.492,0.191-2.957,1.258-3.744l0.4-0.217c0,0,1.436-0.582,2.762-2.295
		c1.504-1.941,2.445-4.631,3.133-6.594c1.453-4.141,1.357-13.167,1.357-13.256C10.2,12.881,10.642,1.722,23.315,1.237
		C33.479,0.809,36.822,8.697,37.17,12.904c0.008,0.066,0.119,2.592,0.299,5.537c0.166,2.819,0.699,6.297,1.213,7.924
		c0.439,1.393,1.832,4.248,3.027,5.986c0.943,1.367,2.104,2.453,2.471,2.787c1.023,0.561,2.945,1.873,2.727,3.66
		c-0.184,1.541-1.729,2.42-3.82,2.244l-4.754,0.006c-0.906,0-1.637-0.73-1.637-1.637c0-0.904,0.73-1.637,1.637-1.637h3.893
		l-0.043-0.037c-0.074-0.061-1.781-1.52-3.166-3.527c-1.42-2.057-2.932-5.205-3.457-6.859c-0.602-1.906-1.172-5.57-1.357-8.714
		c-0.18-2.973-0.295-5.524-0.295-5.524c-0.084-0.858-1.07-8.947-10.464-8.604c-9.645,0.369-9.965,8.239-9.971,8.574
		c0.006,0.33,0.102,9.636-1.541,14.318c-0.762,2.174-1.805,5.154-3.637,7.518c-1.148,1.484-2.367,2.369-3.197,2.857h15.979
		l-0.217,1.836c-0.004,0.004-0.164,1.662,0.824,2.76c0.682,0.754,1.816,1.135,3.384,1.135c1.533,0,2.621-0.365,3.225-1.08
		c0.898-1.062,0.635-2.709,0.631-2.729c-0.15-0.885,0.441-1.732,1.326-1.891c0.893-0.146,1.73,0.428,1.895,1.311
		c0.061,0.314,0.523,3.17-1.322,5.387C29.564,46.016,27.631,46.779,25.066,46.779z"/>
</g>
<g id="Capa_2" display="none">
	<g display="inline">
		<g>
			<circle fill="#FF570A" cx="33.303" cy="13.641" r="12.936"/>
		</g>
		<path fill="#172434" d="M39.465,28.283c0.634,1.418,1.419,2.854,2.244,4.053c0.943,1.367,2.104,2.453,2.471,2.787
			c1.023,0.561,2.945,1.873,2.727,3.66c-0.184,1.541-1.729,2.42-3.82,2.244l-4.754,0.006c-0.906,0-1.637-0.73-1.637-1.637
			c0-0.904,0.73-1.637,1.637-1.637h3.893l-0.043-0.037c-0.074-0.061-1.781-1.52-3.166-3.527c-1.037-1.502-1.929-2.879-2.645-4.758
			c0,0-0.659-1.6,0.809-2.217C38.711,26.578,39.465,28.283,39.465,28.283z"/>
		<path fill="#172434" d="M22.066,4.603c-8.3,1.026-8.589,8.146-8.595,8.465c0.006,0.33,0.102,9.636-1.541,14.317
			c-0.762,2.174-1.805,5.154-3.637,7.518c-1.148,1.484-2.367,2.369-3.197,2.857h15.979l-0.217,1.836
			c-0.004,0.004-0.164,1.662,0.824,2.76c0.682,0.754,1.816,1.135,3.384,1.135c1.533,0,2.621-0.365,3.225-1.08
			c0.898-1.062,0.635-2.709,0.631-2.729c-0.15-0.885,0.441-1.732,1.326-1.891c0.893-0.146,1.73,0.428,1.895,1.311
			c0.061,0.314,0.523,3.17-1.322,5.387c-1.256,1.512-3.189,2.275-5.754,2.275c-2.554,0-4.522-0.756-5.845-2.254
			c-1.006-1.131-1.414-2.439-1.568-3.477H3.595c-0.613,0.055-1.619-0.191-2.307-1.883c-0.611-1.492,0.191-2.957,1.258-3.744
			l0.4-0.217c0,0,1.436-0.582,2.762-2.295c1.504-1.941,2.445-4.631,3.133-6.594c1.453-4.14,1.357-13.167,1.357-13.256
			c0.001-0.171,0.406-10.382,11.522-11.7c0,0,1.39-0.033,1.537,1.538C23.406,4.454,22.066,4.603,22.066,4.603z"/>
	</g>
</g>
<g id="Capa_3" display="none">
	<path display="inline" fill="#E30613" d="M26.426,16.472h-5.019v5.019h5.019V16.472z M36.463,16.472h-5.019v5.019h5.019V16.472z
		 M43.989,32.781c-3.136,0-6.146-0.5-8.958-1.43c-0.878-0.274-1.857-0.073-2.557,0.603l-5.522,5.521
		c-7.101-3.614-12.92-9.41-16.535-16.511l5.521-5.545c0.701-0.678,0.901-1.657,0.627-2.535c-0.929-2.809-1.431-5.821-1.431-8.958
		c0-1.379-1.13-2.509-2.509-2.509H3.843c-1.379,0-2.509,1.13-2.509,2.509c0,23.562,19.094,42.657,42.656,42.657
		c1.381,0,2.511-1.13,2.511-2.51v-8.781C46.5,33.911,45.37,32.781,43.989,32.781z M41.481,16.472v5.019H46.5v-5.019H41.481z"/>
</g>
<g id="Capa_4" display="none">
	<g id="jAujKP_1_" display="inline">
		<g>
			<path fill-rule="evenodd" clip-rule="evenodd" fill="#FFFFFF" d="M28.878,23.296c-2.279,2.513-13.3,13.651-15.48,16.022
				c-1.139,1.236-1.451,2.551-0.395,3.949c1.113,1.473,3.096,1.396,4.572-0.203c2.653-2.861,14.128-14.506,16.745-17.398
				c1.825-2.016,1.769-3.273-0.197-5.155c-6.264-5.984-10.062-9.479-16.322-15.474c-1.685-1.615-3.399-1.802-4.618-0.49
				c-1.184,1.279-0.963,2.905,0.654,4.466C16.649,11.719,25.798,20.336,28.878,23.296z"/>
		</g>
	</g>
</g>
<g id="Capa_5" display="none">
	<g display="inline">
		<g>
			<path fill="#55667A" d="M43.533,26.052h-23.4c-1.048,0-1.9-0.853-1.9-1.9s0.853-1.9,1.9-1.9h23.4c1.048,0,1.9,0.853,1.9,1.9
				S44.581,26.052,43.533,26.052z"/>
		</g>
		<g>
			<path fill="#55667A" d="M36.851,32.736c-0.509,0-0.986-0.198-1.345-0.558c-0.738-0.74-0.738-1.945-0.001-2.687l6.685-6.684
				c0.719-0.718,1.969-0.718,2.688,0c0.359,0.359,0.557,0.836,0.557,1.344s-0.197,0.984-0.557,1.344l-6.684,6.683
				C37.836,32.538,37.359,32.736,36.851,32.736z"/>
		</g>
		<g>
			<path fill="#55667A" d="M43.533,26.052c-0.508,0-0.984-0.197-1.344-0.557l-6.684-6.683c-0.738-0.742-0.738-1.947-0.001-2.687
				c0.718-0.72,1.972-0.721,2.689,0l6.683,6.682c0.74,0.74,0.74,1.946,0,2.688C44.518,25.854,44.041,26.052,43.533,26.052z"/>
		</g>
		<g>
			<path fill="#55667A" d="M24.885,45.399c-11.716,0-21.248-9.532-21.248-21.248c0-11.716,9.532-21.248,21.248-21.248
				c6.683,0,13.062,3.215,17.065,8.6l0.594,0.799l-4.728-0.004l-0.147-0.158c-3.31-3.519-7.969-5.538-12.784-5.538
				c-9.675,0-17.547,7.872-17.547,17.548s7.872,17.548,17.547,17.548c4.84,0,9.516-2.036,12.83-5.587l0.147-0.159h4.713
				l-0.589,0.797C37.985,42.166,31.593,45.399,24.885,45.399z"/>
		</g>
	</g>
	<ellipse display="inline" fill="#55667A" cx="-9.312" cy="4.486" rx="4.438" ry="4.486"/>
	<ellipse display="inline" fill="#FF570A" cx="-9.312" cy="14.236" rx="4.438" ry="4.485"/>
</g>
<g id="Capa_5_copia" display="none">
	<g display="inline">
		<g>
			<path fill="#55667A" d="M40.334,47.5h-23.4c-1.048,0-1.9-0.853-1.9-1.9s0.853-1.9,1.9-1.9h23.4c1.048,0,1.9,0.853,1.9,1.9
				S41.382,47.5,40.334,47.5z"/>
		</g>
		<g>
			<path fill="#55667A" d="M34.334,13.301h-17.4c-1.048,0-1.9-0.853-1.9-1.901c0-1.047,0.853-1.899,1.9-1.899h17.4
				c1.048,0,1.9,0.852,1.9,1.899C36.234,12.448,35.382,13.301,34.334,13.301z"/>
		</g>
		<g>
			<path fill="#55667A" d="M16.934,47.5c-1.048,0-1.9-0.853-1.9-1.9v-34.2c0-1.047,0.853-1.899,1.9-1.899s1.9,0.852,1.9,1.899v34.2
				C18.834,46.647,17.982,47.5,16.934,47.5z"/>
		</g>
		<g>
			<path fill="#55667A" d="M40.051,19.004c-0.508,0-0.984-0.198-1.344-0.557l-5.703-5.703c-0.74-0.739-0.74-1.945-0.001-2.687
				c0.721-0.719,1.97-0.718,2.688,0l5.703,5.703c0.741,0.742,0.741,1.947,0,2.688C41.035,18.806,40.559,19.004,40.051,19.004z"/>
		</g>
		<g>
			<path fill="#55667A" d="M40.334,47.5c-1.048,0-1.9-0.853-1.9-1.9v-28.2c0-1.047,0.853-1.899,1.9-1.899s1.9,0.852,1.9,1.899v28.2
				C42.234,46.647,41.382,47.5,40.334,47.5z"/>
		</g>
		<g>
			<path fill="#55667A" d="M10.934,38.5h-3.6c-1.048,0-1.9-0.853-1.9-1.9s0.853-1.9,1.9-1.9h3.6c1.048,0,1.9,0.853,1.9,1.9
				S11.982,38.5,10.934,38.5z"/>
		</g>
		<g>
			<path fill="#55667A" d="M24.735,4.301h-17.4c-1.048,0-1.9-0.853-1.9-1.901c0-1.047,0.853-1.899,1.9-1.899h17.4
				c1.046,0,1.898,0.852,1.898,1.899C26.633,3.448,25.781,4.301,24.735,4.301z"/>
		</g>
		<g>
			<path fill="#55667A" d="M7.333,38.5c-1.047,0-1.898-0.853-1.898-1.9v-34.2c0-1.047,0.852-1.899,1.898-1.899
				c1.049,0,1.902,0.852,1.902,1.899v34.2C9.235,37.647,8.381,38.5,7.333,38.5z"/>
		</g>
		<g>
			<path fill="#55667A" d="M27.271,6.845c-0.508,0-0.984-0.197-1.344-0.556l-2.544-2.545c-0.359-0.359-0.558-0.836-0.558-1.344
				c0-0.508,0.198-0.985,0.558-1.344c0.713-0.715,1.967-0.718,2.687,0.001l2.545,2.546c0.358,0.358,0.557,0.835,0.557,1.343
				c0,0.507-0.198,0.984-0.557,1.343C28.257,6.647,27.779,6.845,27.271,6.845z"/>
		</g>
	</g>
</g>
<g id="Capa_7" display="none">
</g>
<g id="Capa_8" display="none">
	<path display="inline" fill="#004681" d="M41.811,47c-1.247,0-2.49-0.479-3.441-1.43l-14.53-14.527L9.308,45.57
		c-1.901,1.901-4.982,1.901-6.883,0s-1.901-4.981,0-6.883L16.956,24.16L2.425,9.629c-1.901-1.901-1.901-4.981,0-6.883
		s4.982-1.901,6.883,0l14.531,14.53l14.53-14.53c1.901-1.901,4.981-1.901,6.883,0c1.902,1.901,1.902,4.981,0,6.883L30.722,24.16
		l14.53,14.527c1.902,1.901,1.902,4.981,0,6.883C44.302,46.521,43.059,47,41.811,47z"/>
</g>
<g id="Capa_10" display="none">
	<g display="inline">
		<path fill="#172434" d="M33.64,46.554c-1.117,0-2.027-0.91-2.027-2.027s0.91-2.027,2.027-2.027c1.118,0,2.028,0.91,2.028,2.027
			S34.758,46.554,33.64,46.554z M28.132,46.554H12.983c-6.433,0-11.667-5.234-11.667-11.667V12.852
			c0-6.433,5.234-11.667,11.667-11.667h11.706c6.434,0,11.668,5.234,11.668,11.667v4.131c0,0.401,0.326,0.727,0.727,0.727h5.509
			c2.257,0,4.093,1.836,4.093,4.093v13.083c0,3.064-1.178,5.957-3.314,8.145c-0.608,0.757-1.981,0.929-2.817,0.242
			c-0.473-0.387-0.745-0.963-0.745-1.578c0-0.586,0.253-1.143,0.692-1.528c1.36-1.397,2.13-3.285,2.13-5.28V22.492
			c0-0.401-0.326-0.728-0.727-0.728h-5.509c-2.257,0-4.094-1.836-4.094-4.093v-4.82c0-4.198-3.415-7.613-7.612-7.613H12.983
			c-4.198,0-7.613,3.416-7.613,7.613v22.035c0,4.197,3.416,7.612,7.613,7.612h15.149c1.117,0,2.027,0.91,2.027,2.027
			S29.249,46.554,28.132,46.554z"/>
	</g>
</g>
<g id="Capa_11" display="none">
	<path display="inline" d="M27.399,14.275L4.604,37.308v6.089h6.434l22.74-22.74L27.399,14.275z M29.934,11.716l6.389,6.396
		l5.705-5.706l-6.419-6.419L29.934,11.716L29.934,11.716z M1,35.829L35.594,0.875l11.531,11.531L12.531,47H1V35.829z M46.941,43.396
		V47H21.9l3.604-3.604H46.941L46.941,43.396z"/>
</g>
<g id="Capa_12" display="none">
	<g display="inline">
		<path fill="#172434" d="M40.112,17.672H7.883c-1.511,0-2.741-1.229-2.741-2.741v-1.202c0-3.266,2.654-5.923,5.92-5.923h25.872
			c3.266,0,5.923,2.658,5.923,5.923v1.195c0,1.432-1.104,2.609-2.505,2.728C40.271,17.665,40.192,17.672,40.112,17.672z M8.7,14.115
			h30.599v-0.386c0-1.303-1.062-2.366-2.365-2.366H11.062c-1.299,0-2.362,1.063-2.362,2.366V14.115z"/>
		<path fill="#172434" d="M34.846,47H13.153c-2.745,0-4.979-2.233-4.979-4.979V15.886c0-0.979,0.796-1.779,1.779-1.779h28.084
			c0.983,0,1.778,0.799,1.778,1.779c0,0.987-0.795,1.779-1.778,1.779H11.732v24.356c0,0.785,0.636,1.421,1.421,1.421h21.686
			c0.382,0,0.739-0.149,1.011-0.42c0.268-0.268,0.413-0.622,0.413-1.001V23.939c0-0.983,0.796-1.778,1.779-1.778
			c0.982,0,1.778,0.795,1.778,1.778v18.08c0.004,1.327-0.515,2.577-1.456,3.519C37.423,46.482,36.176,47,34.846,47z"/>
		<path fill="#172434" d="M31.524,39.26c-0.785,0-1.425-0.64-1.425-1.425V24.259c0-0.785,0.64-1.424,1.425-1.424
			s1.424,0.639,1.424,1.424v13.576C32.948,38.62,32.31,39.26,31.524,39.26z M24.409,39.239c-0.785,0-1.421-0.64-1.421-1.425V24.231
			c0-0.785,0.636-1.424,1.421-1.424s1.425,0.639,1.425,1.424v13.583C25.834,38.6,25.194,39.239,24.409,39.239z M17.294,39.239
			c-0.785,0-1.421-0.64-1.421-1.425V24.231c0-0.785,0.636-1.424,1.421-1.424s1.424,0.639,1.424,1.424v13.583
			C18.719,38.6,18.08,39.239,17.294,39.239z"/>
		<path fill="#172434" d="M30.204,11.367H17.788c-0.979,0-1.779-0.796-1.779-1.779V5.2c0-2.248,1.828-4.075,4.075-4.075h7.827
			c2.244,0,4.071,1.827,4.071,4.075v4.388C31.982,10.571,31.188,11.367,30.204,11.367z M19.566,7.809h8.859V5.2
			c0-0.285-0.229-0.518-0.515-0.518h-7.827c-0.285,0-0.518,0.232-0.518,0.518V7.809z"/>
	</g>
</g>
<g id="Capa_13" display="none">
	<g transform="translate(1 1)" display="inline">
		<path fill="#172434" d="M23,45.781C10.438,45.781,0.219,35.56,0.219,23C0.219,10.438,10.438,0.219,23,0.219
			c12.56,0,22.781,10.219,22.781,22.781C45.781,35.56,35.56,45.781,23,45.781z M23,3.473C12.232,3.473,3.474,12.232,3.474,23
			c0,10.768,8.759,19.526,19.526,19.526S42.526,33.768,42.526,23C42.526,12.232,33.768,3.473,23,3.473z"/>
		<path fill="#172434" d="M22.895,11.489L22.895,11.489c0.899,0,1.628,0.728,1.628,1.627v19.527c0,0.899-0.729,1.628-1.628,1.628
			l0,0c-0.899,0-1.626-0.729-1.626-1.628V13.116C21.269,12.216,21.995,11.489,22.895,11.489z"/>
		<path fill="#172434" d="M13.131,21.252h19.528c0.899,0,1.626,0.728,1.626,1.628l0,0c0,0.899-0.727,1.626-1.626,1.626H13.131
			c-0.898,0-1.627-0.727-1.627-1.626l0,0C11.504,21.979,12.232,21.252,13.131,21.252z"/>
	</g>
</g>
<g id="Capa_14">
	<g>
		<polygon fill="#FF570A" points="30.258,23.999 11.434,5.175 14.562,2.048 33.387,20.87 36.566,23.999 33.387,27.126 
			14.564,45.952 11.436,42.823 		"/>
	</g>
</g>
</svg>
