<?xml version="1.0" encoding="utf-8"?>
<!-- Generator: Adobe Illustrator 16.0.0, SVG Export Plug-In . SVG Version: 6.00 Build 0)  -->
<!DOCTYPE svg PUBLIC "-//W3C//DTD SVG 1.1//EN" "http://www.w3.org/Graphics/SVG/1.1/DTD/svg11.dtd">
<svg version="1.1" xmlns="http://www.w3.org/2000/svg" xmlns:xlink="http://www.w3.org/1999/xlink" x="0px" y="0px"
	 width="101.75px" height="40.25px" viewBox="0 0 101.75 40.25" enable-background="new 0 0 101.75 40.25" xml:space="preserve">
<g id="Capa_1" display="none">
	<path display="inline" fill="#172434" d="M32.316,32.529c-2.554,0-4.522-0.756-5.845-2.254c-1.006-1.131-1.414-2.439-1.568-3.477
		H10.845c-0.613,0.055-1.619-0.191-2.307-1.883c-0.611-1.492,0.191-2.957,1.258-3.744l0.4-0.217c0,0,1.436-0.582,2.762-2.295
		c1.504-1.941,2.445-4.631,3.133-6.594c1.453-4.141,1.357-13.167,1.357-13.256c0.002-0.179,0.443-11.338,13.117-11.823
		C40.729-13.441,44.072-5.553,44.42-1.346c0.008,0.066,0.119,2.592,0.299,5.537c0.166,2.819,0.699,6.297,1.213,7.924
		c0.439,1.393,1.832,4.248,3.027,5.986c0.943,1.367,2.104,2.453,2.471,2.787c1.023,0.561,2.945,1.873,2.727,3.66
		c-0.184,1.541-1.729,2.42-3.82,2.244l-4.754,0.006c-0.906,0-1.637-0.73-1.637-1.637c0-0.904,0.73-1.637,1.637-1.637h3.893
		l-0.043-0.037c-0.074-0.061-1.781-1.52-3.166-3.527c-1.42-2.057-2.932-5.205-3.457-6.859c-0.602-1.906-1.172-5.57-1.357-8.714
		c-0.18-2.973-0.295-5.524-0.295-5.524c-0.084-0.858-1.07-8.947-10.464-8.604c-9.645,0.369-9.965,8.239-9.971,8.574
		c0.006,0.33,0.102,9.636-1.541,14.318c-0.762,2.174-1.805,5.154-3.637,7.518c-1.148,1.484-2.367,2.369-3.197,2.857h15.979
		l-0.217,1.836c-0.004,0.004-0.164,1.662,0.824,2.76c0.682,0.754,1.816,1.135,3.384,1.135c1.533,0,2.621-0.365,3.225-1.08
		c0.898-1.062,0.635-2.709,0.631-2.729c-0.15-0.885,0.441-1.732,1.326-1.891c0.893-0.146,1.73,0.428,1.895,1.311
		c0.061,0.314,0.523,3.17-1.322,5.387C36.814,31.766,34.881,32.529,32.316,32.529z"/>
</g>
<g id="Capa_2" display="none">
	<g display="inline">
		<g>
			<circle fill="#FF570A" cx="40.553" cy="-0.609" r="12.936"/>
		</g>
		<path fill="#172434" d="M46.715,14.033c0.634,1.418,1.419,2.854,2.244,4.053c0.943,1.367,2.104,2.453,2.471,2.787
			c1.023,0.561,2.945,1.873,2.727,3.66c-0.184,1.541-1.729,2.42-3.82,2.244l-4.754,0.006c-0.906,0-1.637-0.73-1.637-1.637
			c0-0.904,0.73-1.637,1.637-1.637h3.893l-0.043-0.037c-0.074-0.061-1.781-1.52-3.166-3.527c-1.037-1.502-1.929-2.879-2.645-4.758
			c0,0-0.659-1.6,0.809-2.217C45.961,12.328,46.715,14.033,46.715,14.033z"/>
		<path fill="#172434" d="M29.316-9.647c-8.3,1.026-8.589,8.146-8.595,8.465c0.006,0.33,0.102,9.636-1.541,14.317
			c-0.762,2.174-1.805,5.154-3.637,7.518c-1.148,1.484-2.367,2.369-3.197,2.857h15.979l-0.217,1.836
			c-0.004,0.004-0.164,1.662,0.824,2.76c0.682,0.754,1.816,1.135,3.384,1.135c1.533,0,2.621-0.365,3.225-1.08
			c0.898-1.062,0.635-2.709,0.631-2.729c-0.15-0.885,0.441-1.732,1.326-1.891c0.893-0.146,1.73,0.428,1.895,1.311
			c0.061,0.314,0.523,3.17-1.322,5.387c-1.256,1.512-3.189,2.275-5.754,2.275c-2.554,0-4.522-0.756-5.845-2.254
			c-1.006-1.131-1.414-2.439-1.568-3.477H10.845c-0.613,0.055-1.619-0.191-2.307-1.883c-0.611-1.492,0.191-2.957,1.258-3.744
			l0.4-0.217c0,0,1.436-0.582,2.762-2.295c1.504-1.941,2.445-4.631,3.133-6.594c1.453-4.14,1.357-13.167,1.357-13.256
			c0.001-0.171,0.406-10.382,11.522-11.7c0,0,1.39-0.033,1.537,1.538C30.656-9.796,29.316-9.647,29.316-9.647z"/>
	</g>
</g>
<g id="Capa_3" display="none">
	<path display="inline" fill="#E30613" d="M33.676,2.222h-5.019v5.019h5.019V2.222z M43.713,2.222h-5.019v5.019h5.019V2.222z
		 M51.239,18.531c-3.136,0-6.146-0.5-8.958-1.43c-0.878-0.274-1.857-0.073-2.557,0.603l-5.522,5.521
		c-7.101-3.614-12.92-9.41-16.535-16.511l5.521-5.545c0.701-0.678,0.901-1.657,0.627-2.535c-0.929-2.809-1.431-5.821-1.431-8.958
		c0-1.379-1.13-2.509-2.509-2.509h-8.783c-1.379,0-2.509,1.13-2.509,2.509c0,23.562,19.094,42.657,42.656,42.657
		c1.381,0,2.511-1.13,2.511-2.51v-8.781C53.75,19.661,52.62,18.531,51.239,18.531z M48.731,2.222v5.019h5.019V2.222H48.731z"/>
</g>
<g id="Capa_4" display="none">
	<g id="jAujKP_1_" display="inline">
		<g>
			<path fill-rule="evenodd" clip-rule="evenodd" fill="#FFFFFF" d="M36.128,9.046c-2.279,2.513-13.3,13.651-15.48,16.022
				c-1.139,1.236-1.451,2.551-0.395,3.949c1.113,1.473,3.096,1.396,4.572-0.203c2.653-2.861,14.128-14.506,16.745-17.398
				c1.825-2.016,1.769-3.273-0.197-5.155C35.109,0.277,31.312-3.218,25.051-9.212c-1.685-1.615-3.399-1.802-4.618-0.49
				c-1.184,1.279-0.963,2.905,0.654,4.466C23.899-2.531,33.048,6.086,36.128,9.046z"/>
		</g>
	</g>
</g>
<g id="Capa_5" display="none">
	<g display="inline">
		<path fill="#FF570A" d="M52.184,9.901c0,0.773-0.627,1.4-1.4,1.4h-23.4c-0.773,0-1.4-0.627-1.4-1.4l0,0c0-0.773,0.627-1.4,1.4-1.4
			h23.4C51.557,8.501,52.184,9.128,52.184,9.901L52.184,9.901z"/>
		<path fill="#FF570A" d="M51.773,8.912c0.547,0.547,0.547,1.434,0,1.98l-6.684,6.683c-0.545,0.548-1.434,0.548-1.98,0l0,0
			c-0.545-0.547-0.545-1.433,0-1.98l6.684-6.683C50.34,8.365,51.227,8.365,51.773,8.912L51.773,8.912z"/>
		<path fill="#FF570A" d="M51.773,10.892c0.547-0.548,0.547-1.434,0-1.98L45.09,2.228c-0.545-0.547-1.434-0.547-1.98,0l0,0
			c-0.545,0.547-0.545,1.433,0,1.981l6.684,6.683C50.34,11.438,51.227,11.438,51.773,10.892L51.773,10.892z"/>
		<path fill="#FF570A" d="M48.834,22.203c-3.781,5.119-9.859,8.446-16.699,8.446c-11.439,0-20.748-9.308-20.748-20.748
			s9.308-20.748,20.748-20.748c6.818,0,12.878,3.306,16.664,8.398l-3.516-0.003c-3.295-3.504-7.971-5.695-13.148-5.695
			c-9.951,0-18.047,8.096-18.047,18.048c0,9.952,8.096,18.048,18.047,18.048c5.203,0,9.898-2.213,13.195-5.746H48.834z"/>
	</g>
	<ellipse display="inline" fill="#55667A" cx="-11.812" cy="-6.361" rx="4.438" ry="4.486"/>
</g>
<g id="Capa_5_copia" display="none">
	<g display="inline">
		<path fill="#FF570A" d="M48.984,31.35c0,0.773-0.627,1.4-1.4,1.4h-23.4c-0.773,0-1.4-0.627-1.4-1.4l0,0c0-0.773,0.627-1.4,1.4-1.4
			h23.4C48.357,29.949,48.984,30.576,48.984,31.35L48.984,31.35z"/>
		<path fill="#FF570A" d="M42.984-2.851c0,0.774-0.627,1.401-1.4,1.401h-17.4c-0.773,0-1.4-0.627-1.4-1.401l0,0
			c0-0.772,0.627-1.399,1.4-1.399h17.4C42.357-4.25,42.984-3.623,42.984-2.851L42.984-2.851z"/>
		<path fill="#FF570A" d="M24.184-4.25c0.773,0,1.4,0.627,1.4,1.399v34.2c0,0.773-0.627,1.4-1.4,1.4l0,0c-0.773,0-1.4-0.627-1.4-1.4
			v-34.2C22.784-3.623,23.411-4.25,24.184-4.25L24.184-4.25z"/>
		<path fill="#FF570A" d="M40.607-3.84c0.547-0.546,1.434-0.546,1.98,0l5.703,5.703c0.547,0.547,0.547,1.434,0,1.981l0,0
			c-0.547,0.547-1.434,0.547-1.98,0l-5.703-5.703C40.061-2.406,40.062-3.293,40.607-3.84L40.607-3.84z"/>
		<path fill="#FF570A" d="M47.584,1.75c0.773,0,1.4,0.627,1.4,1.399v28.2c0,0.773-0.627,1.4-1.4,1.4l0,0c-0.773,0-1.4-0.627-1.4-1.4
			v-28.2C46.184,2.377,46.811,1.75,47.584,1.75L47.584,1.75z"/>
		<path fill="#FF570A" d="M19.584,22.35c0,0.773-0.627,1.4-1.4,1.4h-3.6c-0.773,0-1.4-0.627-1.4-1.4l0,0c0-0.773,0.627-1.4,1.4-1.4
			h3.6C18.958,20.949,19.584,21.576,19.584,22.35L19.584,22.35z"/>
		<path fill="#FF570A" d="M33.383-11.851c0,0.774-0.627,1.401-1.398,1.401h-17.4c-0.773,0-1.4-0.627-1.4-1.401l0,0
			c0-0.772,0.627-1.399,1.4-1.399h17.4C32.756-13.25,33.383-12.623,33.383-11.851L33.383-11.851z"/>
		<path fill="#FF570A" d="M14.583-13.25c0.775,0,1.402,0.627,1.402,1.399v34.2c0,0.773-0.627,1.4-1.402,1.4l0,0
			c-0.771,0-1.398-0.627-1.398-1.4v-34.2C13.184-12.623,13.811-13.25,14.583-13.25L14.583-13.25z"/>
		<path fill="#FF570A" d="M35.512-8.315c-0.547,0.547-1.434,0.547-1.98,0.001l-2.544-2.545c-0.548-0.547-0.548-1.434,0-1.98l0,0
			c0.545-0.546,1.433-0.546,1.98,0l2.545,2.546C36.059-9.748,36.059-8.861,35.512-8.315L35.512-8.315z"/>
	</g>
</g>
<g id="Capa_5_copia_2">
	<g>
		<path fill="#004681" d="M39.571,2.522c-0.002-0.017-0.002-0.03-0.003-0.048c-0.004,0.003-0.011,0.003-0.016,0.006L39.571,2.522z"
			/>
		<path fill="#FF6C0C" d="M18.924,14.734c0,1.99-1.609,3.6-3.61,3.6c-1.988,0-3.598-1.609-3.598-3.6
			c0-1.985,1.609-3.596,3.598-3.596C17.314,11.139,18.924,12.749,18.924,14.734"/>
		<path fill="#FF6C0C" d="M9.325,8.725H1.544l1.573,4.814h3.879v-0.012c3.926,0,7.11-3.184,7.122-7.12V2.539L9.325,0.967V8.725z"/>
		<path fill="#FF6C0C" d="M9.302,20.736v7.767l4.816-1.559v-3.879h-0.012c0-3.927-3.185-7.109-7.125-7.12H3.117l-1.573,4.791H9.302z
			"/>
		<path fill="#FF6C0C" d="M21.313,20.748h7.781l-1.586-4.803h-3.865H23.63c-3.926,0.011-7.107,3.193-7.107,7.12v0.012v3.856
			l4.791,1.569V20.748z"/>
		<path fill="#FF6C0C" d="M21.325,8.748V0.981l-4.803,1.558v3.88c0.01,3.925,3.193,7.108,7.121,7.12h0.011h3.854l1.586-4.791H21.325
			z"/>
		<rect x="32.169" y="28.518" fill="#004681" width="67.824" height="0.45"/>
		<path fill="#004681" d="M45.719,18.699c0-1.023,0.181-1.389-0.966-2l-0.793-0.389v-0.709h7.904v0.709l-0.807,0.314
			c-1.193,0.49-1.193,0.623-1.168,2.074l0.01,5.843l-0.292,0.28c-1.378,0.354-4.597,1.23-7.5,1.23c-6.66,0-9.938-3.452-9.938-10.915
			c0-8.024,4.633-11.501,10.719-11.501c1.634,0,4.6,0,6.659,1.745C50.229,5.954,50.29,6.6,50.29,6.855
			c0,0.49-0.096,0.586-0.195,0.781l-1.475,2.868h-0.55c0-1.417-1.646-5.183-5.928-5.183c-4.964,0-5.206,3.463-5.206,9.316
			c0,5.123,0.537,9.73,6.463,9.73c1.916,0,2.27-1.012,2.319-2.145V18.699z"/>
		<path fill="#004681" d="M53.839,24.922l1.416-0.576c1.157-0.45,1.157-1.291,1.157-3.158V7.736c0-1.037-0.292-1.55-1.098-2.1
			l-1.292-0.864V4.064h5.866l0.354,0.218c0.645,0.867,1.988,3.196,3.791,5.636l6.223,8.464c0.255,0.354,0.39,0.513,0.51,0.513
			c0.256,0,0.256-0.317,0.256-0.904V7.759c0-1.476-0.025-1.769-1.279-2.278L67.9,4.772V4.064h7.379v0.708l-0.938,0.354
			c-1.377,0.547-1.646,0.863-1.646,2.986v12.686c0,1.938,0.036,3.902,0.036,4.57l-0.218,0.258h-1.807l-0.354-0.258
			c-0.293-0.354-1.963-2.706-3.672-4.986l-7.537-10.074c-0.415-0.549-0.609-0.841-0.768-0.841c-0.293,0-0.293,0.329-0.293,0.779
			v11.515c0,1.547,0,2.035,1.353,2.488l1.904,0.672v0.705h-7.501V24.922z"/>
		<path fill="#004681" d="M77.171,24.922l1.414-0.477c1.061-0.354,1.099-0.94,1.099-2.964V7.566c0-1.539,0-1.93-1.099-2.281
			l-1.414-0.513V4.064h10.67c3.732,0,7.392,0.807,7.392,5.695c0,4.477-3.342,7.245-8.562,7.245c-0.22,0-0.512-0.037-0.707-0.037
			l-0.475-1.159l0.255-0.255c2.342-0.062,5.184-1.025,4.78-5.551c-0.315-3.524-1.341-4.183-4.23-4.183
			c-1.966,0-2.099,0.293-2.099,1.098v14.563c0,2.156-0.037,2.61,1.257,2.964l1.671,0.477v0.705h-9.951V24.922z"/>
		<path fill="#004681" d="M98.221,4.418c0.743,0,1.353,0.598,1.353,1.451c0,0.842-0.609,1.451-1.353,1.451v0.342
			c0.985,0,1.79-0.807,1.79-1.793c0-0.998-0.805-1.805-1.79-1.805V4.418z M98.221,6.139V5.711h0.011
			c0.232,0,0.416-0.037,0.416-0.304c0-0.243-0.221-0.28-0.404-0.28h-0.022V4.835h0.061c0.487,0,0.755,0.17,0.755,0.598
			c0,0.352-0.207,0.521-0.535,0.547l0.549,0.903h-0.392L98.221,6.139z M98.221,7.32c-0.757,0-1.367-0.609-1.367-1.451
			c0-0.854,0.61-1.451,1.367-1.451V4.064c-1.001,0-1.807,0.807-1.807,1.805c0,0.986,0.806,1.793,1.807,1.793V7.32z M98.221,4.835
			v0.292h-0.319v0.584h0.319v0.428l-0.087-0.137h-0.232v0.881h-0.378V4.835H98.221z"/>
		<path fill="#004681" d="M33.802,38.072c-0.76,0-1.233-0.216-1.406-0.318c-0.158-0.181-0.266-0.775-0.266-1.34
			c0.058-0.107,0.247-0.116,0.315-0.025c0.165,0.538,0.721,1.301,1.424,1.301c0.613,0,0.896-0.422,0.896-0.839
			c0-0.669-0.629-1.068-1.127-1.315c-0.596-0.3-1.25-0.795-1.25-1.617c-0.011-0.936,0.719-1.581,1.92-1.581
			c0.275,0,0.613,0.031,0.945,0.133c0.106,0.031,0.184,0.048,0.282,0.065c0.066,0.182,0.148,0.632,0.148,1.185
			c-0.041,0.102-0.247,0.107-0.324,0.025c-0.139-0.423-0.496-1.028-1.093-1.028c-0.547,0-0.844,0.356-0.844,0.773
			c0,0.379,0.34,0.729,0.754,0.943l0.547,0.289c0.514,0.275,1.167,0.754,1.167,1.666C35.891,37.406,35.055,38.072,33.802,38.072"/>
		<path fill="#004681" d="M42.651,34.623c0,0.232,0.008,0.25,0.232,0.25h0.572c0.432,0,0.529-0.057,0.613-0.457l0.041-0.207
			c0.059-0.064,0.266-0.064,0.307,0.01c-0.016,0.266-0.024,0.561-0.024,0.878c0,0.314,0.009,0.612,0.024,0.878
			c-0.041,0.074-0.248,0.082-0.307,0.009l-0.041-0.21c-0.084-0.396-0.182-0.461-0.613-0.461h-0.572
			c-0.225,0-0.232,0.008-0.232,0.254v0.986c0,0.383,0.034,0.648,0.133,0.788c0.109,0.149,0.267,0.216,0.87,0.216
			c0.722,0,1.003-0.026,1.46-0.961c0.064-0.091,0.273-0.06,0.306,0.039c-0.032,0.434-0.231,1.105-0.347,1.326
			c-0.439-0.017-1.236-0.022-1.916-0.022h-1.075c-0.398,0-0.805,0.006-1.427,0.022c-0.065-0.048-0.065-0.246,0-0.286l0.39-0.06
			c0.372-0.059,0.422-0.107,0.422-0.869v-3.092c0-0.754-0.05-0.802-0.422-0.879l-0.207-0.039c-0.073-0.051-0.066-0.24,0.019-0.292
			c0.387,0.015,0.793,0.025,1.193,0.025h1.755c0.53,0,1.001-0.011,1.11-0.025c0.006,0.134,0.065,0.729,0.107,1.284
			c-0.033,0.093-0.223,0.109-0.307,0.033c-0.091-0.289-0.209-0.538-0.314-0.654c-0.158-0.156-0.406-0.255-0.813-0.255h-0.661
			c-0.275,0-0.275,0.015-0.275,0.32V34.623z"/>
		<path fill="#004681" d="M55.321,37.004c0,0.346,0.016,0.51,0.174,0.543c0.033,0.035,0.023,0.176-0.025,0.201
			c-0.14,0.023-0.356,0.049-0.579,0.125c-0.289,0.088-1.001,0.199-1.466,0.199c-0.566,0-1.045-0.061-1.634-0.293
			c-0.968-0.388-1.632-1.309-1.632-2.502c0-1.033,0.465-1.946,1.459-2.502c0.563-0.306,1.234-0.438,1.938-0.438
			c0.92,0,1.375,0.198,1.641,0.198c0.024,0.249,0.034,0.83,0.117,1.334c-0.033,0.092-0.258,0.1-0.314,0.018
			c-0.266-0.779-0.789-1.17-1.559-1.17c-1.318,0-1.955,1.096-1.955,2.405c0,1.185,0.406,1.89,0.943,2.253
			c0.398,0.266,0.83,0.314,1.136,0.314c0.472,0,0.572-0.091,0.572-0.629v-0.524c0-0.444-0.05-0.496-0.446-0.553l-0.365-0.051
			c-0.091-0.048-0.091-0.241,0-0.292c0.588,0.018,0.993,0.025,1.4,0.025c0.396,0,0.803-0.008,1.084-0.025
			c0.066,0.051,0.066,0.244,0,0.292l-0.189,0.034c-0.248,0.039-0.299,0.125-0.299,0.569V37.004z"/>
		<path fill="#004681" d="M61.204,33.663c0-0.771-0.05-0.821-0.423-0.896l-0.206-0.043c-0.067-0.048-0.076-0.229,0.017-0.28
			c0.397,0.015,0.81,0.025,1.208,0.025c0.405,0,0.812-0.011,1.21-0.025c0.067,0.052,0.067,0.232,0,0.28l-0.2,0.034
			c-0.371,0.068-0.42,0.134-0.42,0.904v1.912c0,0.97,0.105,2.04,1.365,2.04c1.062,0,1.385-0.93,1.385-2.062V34.55
			c0-0.672-0.034-1.301-0.125-1.517c-0.074-0.172-0.255-0.223-0.48-0.266l-0.223-0.043c-0.067-0.062-0.049-0.229,0-0.28
			c0.448,0.015,0.77,0.025,1.109,0.025c0.308,0,0.613-0.011,0.928-0.025c0.051,0.052,0.067,0.218,0,0.28l-0.149,0.034
			c-0.216,0.052-0.371,0.103-0.446,0.274c-0.091,0.216-0.125,0.845-0.125,1.517v0.927c0,0.779-0.073,1.493-0.529,1.997
			c-0.364,0.389-0.969,0.599-1.641,0.599c-0.629,0-1.193-0.103-1.641-0.465c-0.433-0.357-0.613-0.973-0.613-1.873V33.663z"/>
		<path fill="#004681" d="M71.769,33.812c0-0.83-0.018-0.92-0.365-0.971l-0.223-0.031c-0.086-0.043-0.086-0.25,0.016-0.293
			c0.621-0.042,1.268-0.073,2.055-0.073c0.705,0,1.31,0.108,1.625,0.298c0.48,0.283,0.729,0.697,0.729,1.227
			c0,0.736-0.497,1.051-0.878,1.244c-0.083,0.039-0.083,0.09-0.041,0.182c0.547,1.11,0.887,1.73,1.284,2.07
			c0.215,0.176,0.43,0.225,0.555,0.232c0.074,0.043,0.074,0.165,0.033,0.216c-0.133,0.057-0.398,0.077-0.655,0.077
			c-0.761,0-1.242-0.275-1.608-0.873c-0.264-0.437-0.455-0.845-0.645-1.284c-0.1-0.224-0.232-0.288-0.439-0.288
			c-0.29,0-0.307,0.017-0.307,0.181v1.021c0,0.762,0.051,0.818,0.422,0.887l0.225,0.042c0.058,0.04,0.058,0.238,0,0.286
			c-0.439-0.017-0.82-0.022-1.218-0.022c-0.415,0-0.78,0.006-1.211,0.022c-0.065-0.048-0.065-0.246,0-0.286l0.226-0.042
			c0.372-0.068,0.422-0.125,0.422-0.887V33.812z M72.903,34.864c0,0.289,0.025,0.314,0.514,0.314c0.298,0,0.473-0.073,0.629-0.232
			c0.143-0.139,0.298-0.405,0.298-0.896c0-0.745-0.438-1.224-1.083-1.224c-0.341,0-0.357,0.025-0.357,0.422V34.864z"/>
		<path fill="#004681" d="M86.665,35.179c0,1.806-1.208,2.894-2.99,2.894c-1.666,0-2.876-1.098-2.876-2.828
			c0-1.639,1.227-2.907,2.96-2.907C85.481,32.337,86.665,33.496,86.665,35.179 M83.69,32.717c-1.019,0-1.564,0.955-1.564,2.338
			c0,1.011,0.355,2.635,1.706,2.635c1.085,0,1.509-1.061,1.509-2.402C85.341,33.869,84.72,32.717,83.69,32.717"/>
		<path fill="#004681" d="M93.252,38.072c-0.761,0-1.233-0.216-1.408-0.318c-0.155-0.181-0.265-0.775-0.265-1.34
			c0.059-0.107,0.249-0.116,0.315-0.025c0.165,0.538,0.72,1.301,1.425,1.301c0.614,0,0.895-0.422,0.895-0.839
			c0-0.669-0.631-1.068-1.127-1.315c-0.596-0.3-1.25-0.795-1.25-1.617c-0.009-0.936,0.719-1.581,1.921-1.581
			c0.274,0,0.613,0.031,0.944,0.133c0.109,0.031,0.184,0.048,0.282,0.065c0.067,0.182,0.149,0.632,0.149,1.185
			c-0.04,0.102-0.248,0.107-0.322,0.025c-0.142-0.423-0.498-1.028-1.095-1.028c-0.546,0-0.845,0.356-0.845,0.773
			c0,0.379,0.339,0.729,0.756,0.943l0.543,0.289c0.515,0.275,1.171,0.754,1.171,1.666C95.342,37.406,94.505,38.072,93.252,38.072"/>
	</g>
</g>
<g id="Capa_7" display="none">
	<g display="inline">
		<path fill="#55667A" d="M46.15,30.967c0,0.773-0.627,1.4-1.4,1.4h-27c-0.773,0-1.4-0.627-1.4-1.4l0,0c0-0.773,0.627-1.4,1.4-1.4
			h27C45.523,29.566,46.15,30.193,46.15,30.967L46.15,30.967z"/>
		<path fill="#55667A" d="M22.15-6.833c0,0.774-0.627,1.401-1.4,1.401h-3c-0.773,0-1.4-0.627-1.4-1.401l0,0
			c0-0.772,0.627-1.399,1.4-1.399h3C21.523-8.232,22.15-7.605,22.15-6.833L22.15-6.833z"/>
		<path fill="#55667A" d="M17.75-8.232c0.773,0,1.4,0.627,1.4,1.399v37.8c0,0.773-0.627,1.4-1.4,1.4l0,0c-0.773,0-1.4-0.627-1.4-1.4
			v-37.8C16.35-7.605,16.977-8.232,17.75-8.232L17.75-8.232z"/>
		<path fill="#55667A" d="M44.75-8.232c0.773,0,1.4,0.627,1.4,1.399v37.8c0,0.773-0.627,1.4-1.4,1.4l0,0c-0.773,0-1.4-0.627-1.4-1.4
			v-37.8C43.35-7.605,43.977-8.232,44.75-8.232L44.75-8.232z"/>
		<path fill="#55667A" d="M46.15-6.833c0,0.774-0.627,1.401-1.4,1.401h-3c-0.773,0-1.4-0.627-1.4-1.401l0,0
			c0-0.772,0.627-1.399,1.4-1.399h3C45.523-8.232,46.15-7.605,46.15-6.833L46.15-6.833z"/>
		<path fill="#55667A" d="M35.562-3.139h-8.623c-2.037,0-3.693-1.658-3.693-3.695c0-1.632,1.065-3.021,2.538-3.507
			c0.488-1.466,1.875-2.527,3.505-2.527h3.988c1.629,0,3.015,1.061,3.504,2.527c1.451,0.482,2.473,1.851,2.473,3.506
			C39.254-4.796,37.599-3.139,35.562-3.139z M26.945-7.826c-0.554,0-1,0.445-1,0.992c0,0.549,0.446,0.995,0.994,0.995h8.623
			c0.547,0,0.992-0.446,0.992-0.995c0-0.565-0.402-0.992-0.936-0.992h-1.35v-1.35c0-0.547-0.445-0.992-0.992-0.992h-3.988
			c-0.548,0-0.994,0.445-0.994,0.992v1.35H26.945z"/>
		<path fill="#55667A" d="M41.949,12.467c0,0.773-0.627,1.4-1.398,1.4h-18.6c-0.773,0-1.4-0.627-1.4-1.4l0,0
			c0-0.773,0.627-1.4,1.4-1.4h18.6C41.322,11.066,41.949,11.693,41.949,12.467L41.949,12.467z"/>
		<path fill="#55667A" d="M41.949,4.667c0,0.773-0.627,1.4-1.398,1.4h-18.6c-0.773,0-1.4-0.627-1.4-1.4l0,0
			c0-0.772,0.627-1.399,1.4-1.399h18.6C41.322,3.267,41.949,3.894,41.949,4.667L41.949,4.667z"/>
		<path fill="#55667A" d="M41.949,20.266c0,0.775-0.627,1.402-1.398,1.402h-18.6c-0.773,0-1.4-0.627-1.4-1.402l0,0
			c0-0.771,0.627-1.398,1.4-1.398h18.6C41.322,18.867,41.949,19.494,41.949,20.266L41.949,20.266z"/>
	</g>
</g>
</svg>
