<?xml version="1.0" encoding="utf-8"?>
<!-- Generator: Adobe Illustrator 16.0.0, SVG Export Plug-In . SVG Version: 6.00 Build 0)  -->
<!DOCTYPE svg PUBLIC "-//W3C//DTD SVG 1.1//EN" "http://www.w3.org/Graphics/SVG/1.1/DTD/svg11.dtd">
<svg version="1.1" id="Layer_1" xmlns="http://www.w3.org/2000/svg" xmlns:xlink="http://www.w3.org/1999/xlink" x="0px" y="0px"
	 width="586.666px" height="70.719px" viewBox="0 0 586.666 70.719" enable-background="new 0 0 586.666 70.719"
	 xml:space="preserve">
<g>
	<g>
		<g>
			<path fill="#fff" d="M45.234,5.133l1.557,1.012c0.467,0.259,0.908,0.674,1.323,1.245c0.207,0.312,0.388,0.858,0.545,1.635
				c0,1.975-1.065,4.129-3.191,6.464c-3.013,5.918-5.869,13.733-8.567,23.439c-2.804,10.227-5.09,17.262-6.854,21.099
				c-1.089,2.289-3.193,4.106-6.306,5.454c-2.443,1.042-4.312,1.689-5.609,1.946c-2.024,0-3.504-1.53-4.438-4.595
				c-0.884-4.102-2.18-10.252-3.893-18.455c-2.028-10.642-3.818-17.572-5.374-20.79l-2.725-5.609
				c-0.832-1.764-1.271-3.373-1.323-4.828c-0.056-2.075,0.413-3.347,1.4-3.814C2.768,9.076,3.727,8.894,4.663,8.79
				c0.726-0.311,1.349-0.466,1.869-0.466c2.283,0,4.333,2.958,6.15,8.876c0.932,3.897,1.869,7.765,2.805,11.605
				c2.905,11.733,5.086,18.328,6.54,19.779c0.26,0.156,0.599,0.311,1.014,0.467c0.884,0,3.009-4.775,6.386-14.329
				c2.179-6.279,4.358-12.562,6.54-18.845C38.198,10.479,41.287,6.897,45.234,5.133z"/>
			<path fill="#fff" d="M62.04,65.988c-0.209,0.262-0.836,0.402-1.878,0.429c-1.043,0.027-1.748,0.144-2.11,0.351
				c-3.127-1.454-5.031-3.169-5.707-5.146c-0.104-0.417-0.313-2.809-0.628-7.175c-0.188-3.223-0.282-4.702-0.282-4.444
				c0-1.093,0.624-4.549,1.871-10.37c0.36-0.262,1.531-0.961,3.504-2.105c2.283,1.975,3.477,3.74,3.582,5.301l-1.033,8.422
				c-0.319,1.303-0.478,2.472-0.478,3.509c0,1.611,0.566,3.158,1.697,4.642c1.133,1.481,1.697,2.898,1.697,4.25
				C62.273,64.324,62.195,65.104,62.04,65.988z M64.906,16.425c0.102,1.402-0.235,2.308-1.013,2.723
				c-0.31,0.155-1.011,0.257-2.103,0.308c-1.815,0.156-3.244-0.542-4.28-2.097c-0.675-1.088-1.067-2.205-1.17-3.345
				c-0.104-1.449-0.152-2.097-0.152-1.942c0-1.502,1.424-2.539,4.282-3.109c0.359-0.103,0.699-0.158,1.01-0.158
				c1.713,0,2.803,1.141,3.271,3.422C64.801,13.626,64.853,15.026,64.906,16.425z"/>
			<path fill="#fff" d="M97.735,40.323c-0.155,3.375-1.739,8.124-4.748,14.246c-3.584,7.368-7.218,11.027-10.904,10.974
				c-2.803,0-5.84-3.807-9.109-11.425c-2.804-6.581-4.207-11.165-4.207-13.756c0-1.245,0.337-2.463,1.012-3.653
				c0.935-1.606,2.232-2.411,3.894-2.411c0.105,0,0.245-0.038,0.428-0.118c0.182-0.076,0.325-0.114,0.429-0.114
				c0.517,0,1.322,0.906,2.417,2.718c-0.107,2.074-0.029,3.625,0.231,4.662c0.517,1.762,0.803,2.851,0.858,3.262
				c0.204,1.246,0.828,2.876,1.868,4.896c1.036,2.02,1.868,3.286,2.49,3.806c1.09-0.935,2.7-3.372,4.831-7.32
				c2.127-3.943,3.191-6.359,3.191-7.242c0.362-2.854,1.062-4.283,2.104-4.283c0.155,0,0.4,0.053,0.739,0.157
				c0.335,0.103,0.585,0.129,0.742,0.078c1.607-0.158,2.658,0.131,3.15,0.856C97.644,36.383,97.838,37.939,97.735,40.323z"/>
			<path fill="#fff" d="M116.082,65.988c-0.211,0.262-0.836,0.402-1.878,0.429c-1.042,0.027-1.746,0.144-2.11,0.351
				c-3.128-1.454-5.03-3.169-5.708-5.146c-0.104-0.417-0.312-2.809-0.625-7.175c-0.188-3.223-0.282-4.702-0.282-4.444
				c0-1.093,0.621-4.549,1.867-10.37c0.364-0.262,1.533-0.961,3.506-2.105c2.283,1.975,3.477,3.74,3.581,5.301l-1.03,8.422
				c-0.318,1.303-0.48,2.472-0.48,3.509c0,1.611,0.566,3.158,1.697,4.642c1.133,1.481,1.697,2.898,1.697,4.25
				C116.315,64.324,116.237,65.104,116.082,65.988z M118.948,16.425c0.105,1.402-0.232,2.308-1.01,2.723
				c-0.312,0.155-1.016,0.257-2.104,0.308c-1.817,0.156-3.246-0.542-4.282-2.097c-0.672-1.088-1.065-2.205-1.167-3.345
				c-0.104-1.449-0.157-2.097-0.157-1.942c0-1.502,1.429-2.539,4.282-3.109c0.364-0.103,0.701-0.158,1.014-0.158
				c1.709,0,2.801,1.141,3.269,3.422C118.846,13.626,118.895,15.026,118.948,16.425z"/>
			<path fill="#fff" d="M157.798,38.926c-0.57,0.572-1.584,0.855-3.035,0.855c-1.041,0-2.754-0.206-5.142-0.621
				c-2.387-0.413-4.023-0.621-4.906-0.621c-3.737,0-6.515,1.556-8.332,4.665c-1.298,2.128-2.155,5.185-2.567,9.178
				c-0.521,4.304-0.808,6.507-0.858,6.61c-0.52,1.296-1.664,2.853-3.426,4.666h-2.337c-0.83-1.505-1.686-4.144-2.57-7.93
				c-0.883-3.783-1.324-6.713-1.324-8.787c0-1.506,0.078-2.488,0.235-2.954c0.311-0.725,0.985-1.091,2.026-1.091
				c0.464,0,0.918,0.207,1.361,0.622c0.442,0.419,0.711,0.626,0.818,0.626c2.907-5.353,5.37-8.792,7.396-10.326
				c2.024-1.531,4.983-2.298,8.877-2.298c1.817,0,4.206,0.597,7.165,1.791C154.969,34.872,157.174,36.746,157.798,38.926z"/>
			<path fill="#fff" d="M211.648,62.602c0,0.726-1.194,1.455-3.583,2.179c-1.917,0.572-3.242,0.858-3.97,0.858
				c-5.294,0-9.761-1.247-13.394-3.741c-4.311-3.011-6.464-7.349-6.464-13.007c0-3.738,1.403-7.764,4.209-12.075
				c3.379-5.037,7.327-7.557,11.848-7.557c2.702,0,4.912,0.832,6.627,2.488c1.713,1.66,2.572,3.784,2.572,6.376
				c0,2.541-1.117,5.262-3.353,8.164c-2.442,3.164-5.094,4.743-7.954,4.743c-0.47,0-0.793-0.108-0.977-0.329
				c-0.182-0.22-0.403-0.329-0.663-0.329c-0.676,0-2.365,0.47-5.067,1.406c0.932,2.863,2.88,5.028,5.84,6.483
				c2.335,1.149,4.957,1.725,7.866,1.725c0.311,0,0.675-0.072,1.09-0.214c0.415-0.139,0.777-0.207,1.089-0.207
				c0.934,0,1.883,0.339,2.841,1.011C211.168,61.249,211.648,61.925,211.648,62.602z M202.143,40.033v-3.807
				c-0.102,0-0.335-0.075-0.699-0.233c-0.362-0.153-0.75-0.233-1.166-0.233c-1.398,0-3.107,1.087-5.128,3.261
				c-1.709,1.915-2.772,3.471-3.185,4.66c1.037,0.879,2.02,1.317,2.954,1.317c0.464,0,1.709-0.566,3.729-1.705
				C201.031,42,202.194,40.913,202.143,40.033z"/>
			<path fill="#fff" d="M239.398,55.023c0.102,0.418,0.155,0.834,0.155,1.247c0,2.903-1.999,5.729-5.995,8.478
				c-3.634,2.543-6.878,3.812-9.734,3.812c-0.521,0-0.963-0.051-1.322-0.154c-0.833-0.104-1.662-0.207-2.492-0.31
				c-1.092-0.102-1.819-0.593-2.182-1.47c-0.21-0.515,0.078-1.186,0.855-2.011c0.781-0.825,1.558-1.366,2.338-1.625
				c-0.105,0-0.169,0-0.196,0s0.012,0,0.116,0c0.209,0.053,0.624,0.104,1.247,0.154c2.75,0.208,6.023-1.585,9.812-5.373
				c0.158-0.103,0.235-0.287,0.235-0.546c0-0.675-1.882-3.271-5.646-7.791c-3.765-4.517-5.699-7.97-5.803-10.36
				c-0.052-2.232,0.832-4.36,2.647-6.386c1.973-2.234,4.389-3.375,7.244-3.43c1.765-0.051,3.14,0.625,4.128,2.028
				c0.881,1.198,1.218,2.367,1.012,3.512c-0.208,0.988-0.91,1.48-2.101,1.48c-0.364,0-0.976-0.052-1.832-0.155
				c-0.857-0.103-1.495-0.156-1.91-0.156c-1.349,0-2.229,0.468-2.647,1.4c0.103,2.077,2.051,5.267,5.84,9.569
				C237.113,51.446,239.19,54.146,239.398,55.023z"/>
			<path fill="#fff" d="M280.389,65.988c-0.21,0.262-0.837,0.402-1.878,0.429c-1.043,0.027-1.746,0.144-2.111,0.351
				c-3.127-1.454-5.03-3.169-5.707-5.146c-0.105-0.417-0.313-2.809-0.627-7.175c-0.188-3.223-0.282-4.702-0.282-4.444
				c0-1.093,0.624-4.549,1.87-10.37c0.362-0.262,1.531-0.961,3.504-2.105c2.28,1.975,3.476,3.74,3.581,5.301l-1.035,8.422
				c-0.316,1.303-0.475,2.472-0.475,3.509c0,1.611,0.564,3.158,1.695,4.642c1.133,1.481,1.697,2.898,1.697,4.25
				C280.622,64.324,280.544,65.104,280.389,65.988z M283.254,16.425c0.103,1.402-0.235,2.308-1.012,2.723
				c-0.313,0.155-1.012,0.257-2.103,0.308c-1.817,0.156-3.244-0.542-4.281-2.097c-0.674-1.088-1.064-2.205-1.169-3.345
				c-0.104-1.449-0.155-2.097-0.155-1.942c0-1.502,1.426-2.539,4.282-3.109c0.361-0.103,0.701-0.158,1.012-0.158
				c1.713,0,2.803,1.141,3.27,3.422C283.148,13.626,283.202,15.026,283.254,16.425z"/>
			<path fill="#fff" d="M331.214,61.923c0,1.819-0.494,3.441-1.48,4.871c-0.987,1.427-2.312,2.142-3.971,2.142
				c-1.299,0-2.961-2.156-4.981-6.469c-3.585-7.797-5.457-11.824-5.61-12.086c-2.44-4.364-4.802-6.549-7.085-6.549
				c-2.285,0-4.128,1.896-5.53,5.684c-1.041,3.533-2.104,7.039-3.194,10.516c-1.454,3.791-3.373,5.683-5.764,5.683
				c-2.906,0-4.359-2.413-4.359-7.243c0-0.572,0.024-1.287,0.077-2.146c0.052-0.856,0.08-1.363,0.08-1.519
				c0-3.741,0.544-8.236,1.634-13.481c1.609-7.792,3.84-11.688,6.697-11.688c1.401,0,2.335,0.834,2.803,2.501
				c0.259,1.354,0.548,2.682,0.857,3.985c0.883-0.933,2.337-1.738,4.36-2.413c1.61-0.572,2.805-0.857,3.583-0.857
				c2.544,0,5.683,2.365,9.424,7.092c2.904,3.637,5.788,8.156,8.643,13.56C329.942,58.182,331.214,60.988,331.214,61.923z"/>
			<path fill="#fff" d="M369.104,58.182c-1.142,1.25-4.308,2.813-9.499,4.688c-4.828,1.721-7.79,2.579-8.879,2.579
				c-4.258,0-7.618-1.323-10.085-3.978c-2.467-2.649-3.7-6.314-3.7-10.995c0-6.135,2.521-11.256,7.56-15.365
				c4.465-3.587,9.346-5.383,14.646-5.383c0.518,0,1.141,0.469,1.869,1.403c0.727,0.937,1.091,1.744,1.091,2.417
				c0,2.703-1.478,4.52-4.438,5.452c-2.695,0.78-5.395,1.56-8.092,2.336c-2.957,1.558-4.434,4.521-4.434,8.882
				c0,4.259,1.943,6.387,5.832,6.387c0.467,0,1.039,0,1.714,0c0.673-0.053,1.231-0.077,1.673-0.077s0.842-0.076,1.203-0.234
				c0.365-0.156,0.791-0.234,1.285-0.234c0.492,0,1.958-0.387,4.396-1.167c2.438-0.777,3.891-1.167,4.36-1.167
				c0.567,0,1.733,0.414,3.498,1.248V58.182z"/>
			<path fill="#fff" d="M409.791,38.926c-0.572,0.572-1.585,0.855-3.04,0.855c-1.036,0-2.752-0.206-5.139-0.621
				c-2.391-0.413-4.024-0.621-4.904-0.621c-3.739,0-6.518,1.556-8.335,4.665c-1.299,2.128-2.152,5.185-2.569,9.178
				c-0.518,4.304-0.806,6.507-0.857,6.61c-0.519,1.296-1.66,2.853-3.426,4.666h-2.334c-0.831-1.505-1.69-4.144-2.569-7.93
				c-0.883-3.783-1.325-6.713-1.325-8.787c0-1.506,0.078-2.488,0.233-2.954c0.311-0.725,0.985-1.091,2.023-1.091
				c0.47,0,0.923,0.207,1.362,0.622c0.443,0.419,0.716,0.626,0.816,0.626c2.91-5.353,5.375-8.792,7.401-10.326
				c2.023-1.531,4.983-2.298,8.877-2.298c1.817,0,4.204,0.597,7.165,1.791C406.959,34.872,409.163,36.746,409.791,38.926z"/>
			<path fill="#fff" d="M441.057,62.602c0,0.726-1.194,1.455-3.581,2.179c-1.922,0.572-3.246,0.858-3.975,0.858
				c-5.295,0-9.758-1.247-13.393-3.741c-4.31-3.011-6.465-7.349-6.465-13.007c0-3.738,1.404-7.764,4.211-12.075
				c3.38-5.037,7.327-7.557,11.847-7.557c2.704,0,4.914,0.832,6.627,2.488c1.718,1.66,2.575,3.784,2.575,6.376
				c0,2.541-1.117,5.262-3.354,8.164c-2.444,3.164-5.096,4.743-7.956,4.743c-0.467,0-0.791-0.108-0.977-0.329
				c-0.182-0.22-0.403-0.329-0.662-0.329c-0.675,0-2.363,0.47-5.068,1.406c0.935,2.863,2.881,5.028,5.843,6.483
				c2.333,1.149,4.955,1.725,7.865,1.725c0.312,0,0.676-0.072,1.089-0.214c0.415-0.139,0.779-0.207,1.091-0.207
				c0.935,0,1.882,0.339,2.843,1.011C440.574,61.249,441.057,61.925,441.057,62.602z M431.551,40.033v-3.807
				c-0.104,0-0.337-0.075-0.701-0.233c-0.359-0.153-0.75-0.233-1.162-0.233c-1.398,0-3.11,1.087-5.13,3.261
				c-1.711,1.915-2.772,3.471-3.186,4.66c1.035,0.879,2.02,1.317,2.954,1.317c0.462,0,1.71-0.566,3.729-1.705
				C430.437,42,431.603,40.913,431.551,40.033z"/>
			<path fill="#fff" d="M460,60.717c-0.208,0.26-0.834,0.403-1.879,0.429c-1.039,0.026-1.745,0.144-2.109,0.352
				c-3.128-1.455-5.031-3.17-5.706-5.146c-0.105-0.415-0.315-2.81-0.627-7.179c-0.188-3.218-0.284-4.699-0.284-4.441
				c0-1.091,0.624-4.549,1.869-10.372c0.364-0.259,1.533-0.961,3.508-2.105c2.281,1.977,3.472,3.745,3.58,5.303l-1.034,8.422
				c-0.316,1.301-0.476,2.47-0.476,3.511c0,1.612,0.566,3.158,1.696,4.639c1.131,1.481,1.695,2.897,1.695,4.25
				C460.233,59.052,460.155,59.831,460,60.717z"/>
			<path fill="#fff" d="M512.744,58.377c0,1.87-1.038,4.05-3.111,6.54c-2.074,2.491-4.123,3.737-6.146,3.737
				c-3.525,0-7.286-0.464-11.277-1.396c-2.699-0.623-5.602-1.477-8.713-2.562c-2.592-0.981-3.966-1.474-4.123-1.474
				c-0.466,0-0.828,0.092-1.088,0.273c-0.259,0.183-0.624,0.271-1.089,0.271c-0.882,0-1.868-0.388-2.956-1.166
				c-1.245-0.883-1.944-1.817-2.101-2.803c-0.104-0.729-0.014-2.184,0.272-4.362c0.287-2.182,0.376-3.816,0.273-4.908
				c-0.208-2.856-0.649-5.658-1.323-8.41c-0.623-2.493-0.935-3.712-0.935-3.661V13.614c0-1.195,0.416-3.062,1.247-5.607
				c0.882-2.751,1.815-4.62,2.803-5.609c2.074,1.145,3.114,3.168,3.114,6.075c0,0.937-0.111,1.987-0.332,3.154
				c-0.222,1.169-0.329,1.778-0.329,1.83v13.708c0,6.386,0.647,13.162,1.946,20.327c1.298-0.779,2.622-2.285,3.969-4.516
				c1.611-2.649,2.754-4.338,3.426-5.067c1.507-1.559,3.349-2.337,5.527-2.337c6.387,0,11.628,2.699,15.729,8.096
				C511.006,48.234,512.744,53.139,512.744,58.377z M504.626,59.381c0.259-0.569,0.389-1.272,0.389-2.103
				c0-2.801-1.247-5.81-3.738-9.029c-2.652-3.424-5.247-5.136-7.793-5.136c-0.727,0-2.495,1.492-5.3,4.478
				c-2.806,2.982-4.183,5.045-4.129,6.185v2.258c7.896,3.011,13.22,4.517,15.974,4.517C502.313,60.55,503.849,60.16,504.626,59.381z
				"/>
			<path fill="#fff" d="M527.651,60.385c0,0.884-0.598,1.688-1.792,2.417c-0.984,0.57-1.766,0.856-2.336,0.856
				c-2.595-0.052-4.671-7.118-6.23-21.2c-1.089-10.131-1.608-17.484-1.556-22.06c0.207-9.714,1.946-14.522,5.216-14.417
				c2.232,0,3.35,2.807,3.35,8.416c0,1.664-0.131,4.498-0.391,8.498c-0.26,4-0.389,6.989-0.389,8.962
				c0,1.923,0.103,3.587,0.313,4.987C526.431,51.812,527.702,59.656,527.651,60.385z"/>
			<path fill="#fff" d="M562.999,62.602c0,0.726-1.192,1.455-3.579,2.179c-1.922,0.572-3.245,0.858-3.974,0.858
				c-5.297,0-9.762-1.247-13.396-3.741c-4.308-3.011-6.462-7.349-6.462-13.007c0-3.738,1.404-7.764,4.208-12.075
				c3.38-5.037,7.329-7.557,11.85-7.557c2.703,0,4.914,0.832,6.626,2.488c1.715,1.66,2.574,3.784,2.574,6.376
				c0,2.541-1.118,5.262-3.354,8.164c-2.444,3.164-5.095,4.743-7.954,4.743c-0.468,0-0.793-0.108-0.978-0.329
				c-0.184-0.22-0.401-0.329-0.662-0.329c-0.677,0-2.365,0.47-5.064,1.406c0.929,2.863,2.876,5.028,5.838,6.483
				c2.335,1.149,4.957,1.725,7.865,1.725c0.31,0,0.677-0.072,1.09-0.214c0.415-0.139,0.777-0.207,1.091-0.207
				c0.934,0,1.884,0.339,2.843,1.011C562.519,61.249,562.999,61.925,562.999,62.602z M553.498,40.033v-3.807
				c-0.109,0-0.34-0.075-0.703-0.233c-0.365-0.153-0.751-0.233-1.164-0.233c-1.396,0-3.108,1.087-5.128,3.261
				c-1.712,1.915-2.772,3.471-3.186,4.66c1.033,0.879,2.018,1.317,2.953,1.317c0.463,0,1.708-0.566,3.729-1.705
				C552.382,42,553.545,40.913,553.498,40.033z"/>
			<path fill="#fff" d="M465.035,9.266c0.051,3.626-1.714,7.796-5.294,12.512c-3.585,4.716-6.908,7.073-9.971,7.073
				c-0.987,0-1.792-0.389-2.414-1.167c-0.413-0.724-0.677-1.345-0.778-1.864c0-0.415,0.726-1.53,2.183-3.341
				c0.983-1.191,2.827-3.602,5.527-7.229c0.05-0.104,1.348-2.487,3.893-7.15c0.883-1.605,1.92-2.435,3.116-2.488
				C463.734,5.562,464.981,6.778,465.035,9.266z"/>
		</g>
		<path fill="#fff" d="M586.512,16.484c0,0.104-0.119,0.444-0.354,1.018c-0.587,1.413-1.294,2.504-2.12,3.275
			c-1.042,0.967-1.958,1.68-2.743,2.138c-1.083,0.64-2.197,0.961-3.334,0.961c-2.393,0.014-4.477-0.595-6.257-1.824
			c-1.936-1.332-2.904-3.084-2.904-5.255v-2.254c0.146-0.378,0.394-0.953,0.75-1.725c0.678-1.282,1.683-2.353,3.017-3.215
			c1.752-1.137,3.898-1.711,6.433-1.726c1.451-0.014,3.007,0.568,4.67,1.744c1.895,1.347,2.843,2.884,2.843,4.61V16.484z
			 M584.232,15.229c0.012-1.331-0.464-2.521-1.431-3.567c-1.269-1.372-2.419-2.058-3.448-2.058c-0.447,0-0.925,0.184-1.434,0.55
			c0-0.015-0.005-0.023-0.021-0.029c-0.012-0.008-0.028-0.012-0.038-0.012c-0.117-0.054-0.31-0.086-0.569-0.101
			c-0.303-0.012-0.608,0.021-0.922,0.098c-0.288,0.027-0.737,0.143-1.353,0.354c-0.691,0.155-1.593,1.006-2.705,2.547
			c-0.821,1.151-1.243,2.29-1.255,3.414c-0.013,1.437,0.791,2.757,2.412,3.959c1.396,1.032,2.68,1.556,3.844,1.568
			c0.86,0.015,1.873-0.325,3.037-1.018c1.045-0.628,1.877-1.321,2.492-2.08C583.754,17.719,584.22,16.51,584.232,15.229z
			 M581.336,19.315c0,0.131-0.009,0.248-0.019,0.351c-0.014,0.104-0.035,0.189-0.062,0.255h-0.526
			c-0.916-0.692-1.995-1.596-3.238-2.706c-0.286,0-0.494,0.323-0.625,0.97c-0.13,0.646-0.354,0.978-0.668,0.99
			c-0.156,0-0.418-0.528-0.783-1.586c-0.082-0.327-0.241-0.883-0.491-1.666c0-0.718,0.039-1.229,0.117-1.529
			c0.051-0.259,0.15-0.652,0.296-1.176c0-0.417-0.114-0.685-0.335-0.801c-0.432-0.223-0.714-0.44-0.845-0.648
			c0.329-0.274,0.721-0.456,1.18-0.548c0.341-0.08,0.772-0.118,1.298-0.118c1.468-0.013,2.539,0.202,3.222,0.646
			c0.64,0.418,0.97,1.105,0.983,2.058c0,0.471-0.165,0.869-0.496,1.194c-0.129,0.147-0.438,0.374-0.926,0.687
			c-0.357,0.208-0.54,0.404-0.553,0.589c0,0.286,0.413,0.699,1.234,1.234C580.923,18.048,581.336,18.648,581.336,19.315z
			 M579.437,13.371c0-0.184-0.221-0.458-0.663-0.824c-0.44-0.366-0.761-0.562-0.959-0.589c-0.421,0-0.749,0.19-0.985,0.57
			c-0.213,0.327-0.317,0.711-0.317,1.157c0,0.392,0.148,0.719,0.453,0.979c0.226,0.184,0.442,0.288,0.654,0.314
			c0.183,0,0.528-0.222,1.026-0.668C579.146,13.867,579.41,13.555,579.437,13.371z"/>
	</g>
</g>
</svg>
