<?xml version="1.0" encoding="utf-8"?>
<!-- Generator: Adobe Illustrator 16.0.0, SVG Export Plug-In . SVG Version: 6.00 Build 0)  -->
<!DOCTYPE svg PUBLIC "-//W3C//DTD SVG 1.1//EN" "http://www.w3.org/Graphics/SVG/1.1/DTD/svg11.dtd">
<svg version="1.1" id="Capa_1" xmlns="http://www.w3.org/2000/svg" xmlns:xlink="http://www.w3.org/1999/xlink" x="0px" y="0px"
	 width="40px" height="40px" viewBox="0 0 40 40" enable-background="new 0 0 40 40" xml:space="preserve">
<path fill="#FFFFFF" d="M21.709,27.38v2.313h-3.236v-2.338c-2.071-0.436-3.828-1.77-3.961-4.119h2.375
	c0.122,1.271,0.993,2.267,3.211,2.267c2.375,0,2.908-1.188,2.908-1.927c0-1.006-0.533-1.951-3.235-2.595
	c-3.004-0.727-5.064-1.961-5.064-4.445c0-2.084,1.685-3.441,3.768-3.889v-2.338h3.236v2.362c2.253,0.545,3.38,2.253,3.452,4.107
	h-2.374c-0.061-1.345-0.775-2.267-2.69-2.267c-1.817,0-2.908,0.825-2.908,1.988c0,1.018,0.788,1.684,3.235,2.314
	c2.447,0.629,5.064,1.685,5.064,4.736C25.477,25.769,23.816,26.98,21.709,27.38"/>
<path fill="#FFFFFF" d="M12.787,35.279c-5.271-2.482-9.042-7.607-9.622-13.668H0.748c0.821,9.93,9.123,17.729,19.26,17.729
	l1.063-0.047l-6.14-6.141L12.787,35.279z M20.008,0.66l-1.063,0.048l6.141,6.141l2.144-2.144c5.27,2.499,9.041,7.608,9.605,13.668
	h2.418C38.446,8.461,30.145,0.66,20.008,0.66z"/>
</svg>
